<svg width="512" height="512" viewBox="0 0 512 512" fill="none" xmlns="http://www.w3.org/2000/svg">
<g clip-path="url(#clip0_450_449)">
<rect width="512" height="512" rx="145" fill="white"/>
<path d="M160.35 365.5C138.55 365.5 119.25 361.1 102.45 352.3C85.75 343.5 72.65 331 63.15 314.8C53.75 298.5 49.05 279.2 49.05 256.9C49.05 240.6 51.8 225.7 57.3 212.2C62.8 198.7 70.55 187.05 80.55 177.25C90.65 167.45 102.55 159.9 116.25 154.6C129.95 149.2 144.95 146.5 161.25 146.5C179.85 146.5 195.15 148.85 207.15 153.55C219.15 158.25 230.25 164.9 240.45 173.5L210.75 223.3C205.35 217.4 198.75 213 190.95 210.1C183.25 207.1 174.65 205.6 165.15 205.6C156.65 205.6 149.15 206.8 142.65 209.2C136.15 211.5 130.65 214.85 126.15 219.25C121.75 223.65 118.4 228.95 116.1 235.15C113.8 241.35 112.65 248.3 112.65 256C112.65 266.5 114.75 275.5 118.95 283C123.15 290.5 129.2 296.3 137.1 300.4C145 304.4 154.55 306.4 165.75 306.4C174.35 306.4 183.05 305.05 191.85 302.35C200.75 299.65 209.25 295.4 217.35 289.6L244.95 340.3C235.55 347.5 223.9 353.5 210 358.3C196.1 363.1 179.55 365.5 160.35 365.5Z" fill="black"/>
<path d="M248.316 361L324.816 151H396.816L473.016 361H404.616L392.916 323.5H326.616L314.916 361H248.316ZM339.516 273.4H379.716L359.916 213.4L339.516 273.4Z" fill="#FF6347"/>
</g>
<defs>
<clipPath id="clip0_450_449">
<rect width="512" height="512" fill="white"/>
</clipPath>
</defs>
</svg>
